<?xml version="1.0" encoding="UTF-8" standalone="no"?>
<!-- Created with Inkscape (http://www.inkscape.org/) -->

<svg
   width="115.4838mm"
   height="122.78744mm"
   viewBox="0 0 115.4838 122.78744"
   version="1.1"
   id="svg1"
   inkscape:version="1.3.2 (091e20e, 2023-11-25, custom)"
   sodipodi:docname="appC-3.svg"
   xmlns:inkscape="http://www.inkscape.org/namespaces/inkscape"
   xmlns:sodipodi="http://sodipodi.sourceforge.net/DTD/sodipodi-0.dtd"
   xmlns="http://www.w3.org/2000/svg"
   xmlns:svg="http://www.w3.org/2000/svg">
  <sodipodi:namedview
     id="namedview1"
     pagecolor="#ffffff"
     bordercolor="#111111"
     borderopacity="1"
     inkscape:showpageshadow="0"
     inkscape:pageopacity="0"
     inkscape:pagecheckerboard="false"
     inkscape:deskcolor="#d1d1d1"
     inkscape:document-units="mm"
     inkscape:zoom="1.5661195"
     inkscape:cx="209.11558"
     inkscape:cy="300.42407"
     inkscape:window-width="1920"
     inkscape:window-height="1057"
     inkscape:window-x="-8"
     inkscape:window-y="-8"
     inkscape:window-maximized="1"
     inkscape:current-layer="layer1" />
  <defs
     id="defs1">
    <marker
       style="overflow:visible"
       id="RoundedArrow"
       refX="0"
       refY="0"
       orient="auto-start-reverse"
       inkscape:stockid="Rounded arrow"
       markerWidth="2"
       markerHeight="2"
       viewBox="0 0 1 1"
       inkscape:isstock="true"
       inkscape:collect="always"
       preserveAspectRatio="xMidYMid">
      <path
         transform="scale(0.7)"
         d="m -0.21114562,-4.1055728 6.42229122,3.21114561 a 1,1 90 0 1 0,1.78885438 L -0.21114562,4.1055728 A 1.236068,1.236068 31.717474 0 1 -2,3 v -6 a 1.236068,1.236068 148.28253 0 1 1.78885438,-1.1055728 z"
         style="fill:context-stroke;fill-rule:evenodd;stroke:none"
         id="path8" />
    </marker>
    <marker
       style="overflow:visible"
       id="RoundedArrow-8"
       refX="0"
       refY="0"
       orient="auto-start-reverse"
       inkscape:stockid="Rounded arrow"
       markerWidth="2"
       markerHeight="2"
       viewBox="0 0 1 1"
       inkscape:isstock="true"
       inkscape:collect="always"
       preserveAspectRatio="xMidYMid">
      <path
         transform="scale(0.7)"
         d="m -0.21114562,-4.1055728 6.42229122,3.21114561 a 1,1 90 0 1 0,1.78885438 L -0.21114562,4.1055728 A 1.236068,1.236068 31.717474 0 1 -2,3 v -6 a 1.236068,1.236068 148.28253 0 1 1.78885438,-1.1055728 z"
         style="fill:context-stroke;fill-rule:evenodd;stroke:none"
         id="path8-5" />
    </marker>
  </defs>
  <g
     inkscape:label="Layer 1"
     inkscape:groupmode="layer"
     id="layer1"
     transform="translate(-69.429158,-38.005744)">
    <path
       style="fill:#1a1a1a;stroke:#000000;stroke-width:0.2;stroke-opacity:1;marker-start:url(#RoundedArrow)"
       d="M 75.976572,39.899645 V 160.79318"
       id="path1" />
    <path
       style="fill:#1a1a1a;stroke:#000000;stroke-width:0.2;stroke-opacity:1;marker-start:url(#RoundedArrow-8)"
       d="M 178.83068,129.82931 H 75.975599"
       id="path1-8"
       sodipodi:nodetypes="cc" />
    <path
       id="rect2"
       style="fill:none;stroke:#000000;stroke-width:0.2"
       d="m 83.33424,129.82931 c 0,0 1.251092,-0.0211 2.011331,-0.80035 1.921715,-0.9503 2.644714,-57.668806 2.644714,-57.668806 0.08487,-2.182319 1.758213,-3.942181 3.942185,-3.942181 h 8.33406 c 2.18397,0 3.84118,1.76055 3.94218,3.942181 0,0 2.48312,56.332756 2.96883,57.283056 0.52794,1.1861 1.96569,1.18999 1.96569,1.18999"
       sodipodi:nodetypes="ccsssscc" />
    <path
       id="rect3"
       style="fill:none;stroke:#000000;stroke-width:0.2"
       d="m 160.03709,129.82931 c 0,0 -1.82201,0 -2.18039,1.22129 -0.32852,1.25433 -1.83338,12.47875 -1.83338,12.47875 -0.36003,2.45054 -1.994,4.47085 -4.47086,4.47085 h -34.42228 c -2.47685,0 -4.21238,-2.00752 -4.47085,-4.47085 0,0 -1.21149,-11.94123 -1.5177,-12.77538 -0.26394,-0.74516 -1.9984,-0.92077 -1.9984,-0.92077"
       sodipodi:nodetypes="ccsssscc" />
    <path
       style="fill:none;stroke:#000000;stroke-width:0.2;stroke-opacity:1"
       d="m 75.229947,148.5 c 1.49325,0 1.49325,0 1.49325,0"
       id="path3" />
    <path
       style="fill:none;stroke:#000000;stroke-width:0.2;stroke-opacity:1"
       d="m 109.14323,129.8332 v 0 m 0,0 z"
       id="path4" />
    <path
       style="fill:none;stroke:#000000;stroke-width:0.2;stroke-opacity:1"
       d="m 109.13818,129.23821 0.0101,1.18999"
       id="path5" />
    <path
       style="fill:none;stroke:#000000;stroke-width:0.2;stroke-opacity:1"
       d="m 147.95745,129.23431 0.0101,1.18999"
       id="path5-6" />
    <ellipse
       style="fill:none;stroke:#000000;stroke-width:0.2;stroke-opacity:1"
       id="path6"
       cx="83.129387"
       cy="129.82932"
       rx="0.50503272"
       ry="0.49860695" />
    <ellipse
       style="fill:none;stroke:#000000;stroke-width:0.2;stroke-opacity:1"
       id="path6-2"
       cx="172.83099"
       cy="129.83206"
       rx="0.50503272"
       ry="0.49860695" />
    <text
       xml:space="preserve"
       style="font-size:4.23333px;font-family:Sans;-inkscape-font-specification:'Sans, Normal';fill:none;stroke:#000000;stroke-width:0.2;stroke-opacity:1"
       x="69.077759"
       y="149.69708"
       id="text6"><tspan
         sodipodi:role="line"
         id="tspan6"
         style="fill:#1a1a1a;fill-opacity:1;stroke:none;stroke-width:0.2"
         x="69.077759"
         y="149.69708">$-1$</tspan></text>
    <text
       xml:space="preserve"
       style="font-size:4.23333px;font-family:Sans;-inkscape-font-specification:'Sans, Normal';fill:none;stroke:#000000;stroke-width:0.2;stroke-opacity:1"
       x="81.807915"
       y="134.49396"
       id="text6-5"><tspan
         sodipodi:role="line"
         id="tspan6-6"
         style="fill:#1a1a1a;fill-opacity:1;stroke:none;stroke-width:0.2"
         x="81.807915"
         y="134.49396">$c_1$</tspan></text>
    <text
       xml:space="preserve"
       style="font-size:4.23333px;font-family:Sans;-inkscape-font-specification:'Sans, Normal';fill:none;stroke:#000000;stroke-width:0.2;stroke-opacity:1"
       x="171.72641"
       y="134.49396"
       id="text6-5-2"><tspan
         sodipodi:role="line"
         id="tspan6-6-5"
         style="fill:#1a1a1a;fill-opacity:1;stroke:none;stroke-width:0.2"
         x="171.72641"
         y="134.49396">$c_2$</tspan></text>
    <text
       xml:space="preserve"
       style="font-size:4.23333px;font-family:Sans;-inkscape-font-specification:'Sans, Normal';fill:none;stroke:#000000;stroke-width:0.2;stroke-opacity:1"
       x="107.49042"
       y="134.49396"
       id="text6-5-0"><tspan
         sodipodi:role="line"
         id="tspan6-6-2"
         style="fill:#1a1a1a;fill-opacity:1;stroke:none;stroke-width:0.2"
         x="107.49042"
         y="134.49396">$a_1$</tspan></text>
    <text
       xml:space="preserve"
       style="font-size:4.23333px;font-family:Sans;-inkscape-font-specification:'Sans, Normal';fill:none;stroke:#000000;stroke-width:0.2;stroke-opacity:1"
       x="146.7946"
       y="134.49396"
       id="text6-5-0-8"><tspan
         sodipodi:role="line"
         id="tspan6-6-2-5"
         style="fill:#1a1a1a;fill-opacity:1;stroke:none;stroke-width:0.2"
         x="146.7946"
         y="134.49396">$a_2$</tspan></text>
    <text
       xml:space="preserve"
       style="font-size:4.23333px;font-family:Sans;-inkscape-font-specification:'Sans, Normal';fill:none;stroke:#000000;stroke-width:0.2;stroke-opacity:1"
       x="106.14536"
       y="75.645851"
       id="text6-5-0-9"><tspan
         sodipodi:role="line"
         id="tspan6-6-2-0"
         style="fill:#1a1a1a;fill-opacity:1;stroke:none;stroke-width:0.2"
         x="106.14536"
         y="75.645851">$g$</tspan></text>
  </g>
</svg>
